<?xml version="1.0" encoding="UTF-8" standalone="no"?>
<!-- Created with Inkscape (http://www.inkscape.org/) -->

<svg
   xmlns:dc="http://purl.org/dc/elements/1.1/"
   xmlns:cc="http://creativecommons.org/ns#"
   xmlns:rdf="http://www.w3.org/1999/02/22-rdf-syntax-ns#"
   xmlns:svg="http://www.w3.org/2000/svg"
   xmlns="http://www.w3.org/2000/svg"
   xmlns:sodipodi="http://sodipodi.sourceforge.net/DTD/sodipodi-0.dtd"
   xmlns:inkscape="http://www.inkscape.org/namespaces/inkscape"
   width="744.09448819"
   height="1052.3622047"
   id="svg2"
   version="1.1"
   inkscape:version="0.48.4 r9939"
   sodipodi:docname="New document 1">
  <defs
     id="defs4" />
  <sodipodi:namedview
     id="base"
     pagecolor="#ffffff"
     bordercolor="#666666"
     borderopacity="1.0"
     inkscape:pageopacity="0.0"
     inkscape:pageshadow="2"
     inkscape:zoom="0.98994949"
     inkscape:cx="583.07656"
     inkscape:cy="599.29487"
     inkscape:document-units="px"
     inkscape:current-layer="layer1"
     showgrid="false"
     inkscape:window-width="1920"
     inkscape:window-height="1018"
     inkscape:window-x="1272"
     inkscape:window-y="-8"
     inkscape:window-maximized="1" />
  <metadata
     id="metadata7">
    <rdf:RDF>
      <cc:Work
         rdf:about="">
        <dc:format>image/svg+xml</dc:format>
        <dc:type
           rdf:resource="http://purl.org/dc/dcmitype/StillImage" />
        <dc:title></dc:title>
      </cc:Work>
    </rdf:RDF>
  </metadata>
  <g
     inkscape:label="Layer 1"
     inkscape:groupmode="layer"
     id="layer1">
    <rect
       style="fill:none;stroke:#000000;stroke-width:2"
       id="rect2995"
       width="150"
       height="250"
       x="162.22516"
       y="-427.19324"
       transform="scale(1,-1)" />
    <path
       style="fill:#ff0000;stroke:#ff0000;stroke-width:0.50507629"
       d=""
       id="path3021"
       inkscape:connector-curvature="0" />
    <path
       sodipodi:type="spiral"
       style="fill:none;stroke:#a10000;stroke-width:1px;stroke-linecap:butt;stroke-linejoin:miter;stroke-opacity:1"
       id="path3849"
       sodipodi:cx="221.42857"
       sodipodi:cy="292.36218"
       sodipodi:expansion="1"
       sodipodi:revolution="3"
       sodipodi:radius="22.429026"
       sodipodi:argument="-17.118847"
       sodipodi:t0="0"
       d="m 221.42857,292.36218 c -0.17906,1.11021 -1.58488,0.30636 -1.84523,-0.29762 -0.70555,-1.63674 0.93742,-3.16837 2.44047,-3.39285 2.6886,-0.40155 4.81632,2.06137 4.94048,4.58333 0.18221,3.70107 -3.19419,6.49545 -6.72619,6.4881 -4.7076,-0.01 -8.18681,-4.32932 -8.03572,-8.86905 0.19014,-5.71279 5.46534,-9.88428 11.0119,-9.58334 6.71763,0.36449 11.58526,6.60183 11.13096,13.15476 -0.53537,7.7224 -7.7386,13.28842 -15.29761,12.67858 -8.72719,-0.70408 -14.99304,-8.87556 -14.2262,-17.44047 0.87133,-9.732 10.01265,-16.69869 19.58333,-15.77382 10.73685,1.03756 18.40507,11.14985 17.32143,21.72618 -1.20304,11.74174 -12.28712,20.11203 -23.86904,18.86906"
       transform="translate(12.214286,-79.285714)" />
    <path
       transform="translate(52.206915,-78.579485)"
       sodipodi:type="spiral"
       style="fill:none;stroke:#a10000;stroke-width:1px;stroke-linecap:butt;stroke-linejoin:miter;stroke-opacity:1"
       id="path3849-1"
       sodipodi:cx="221.42857"
       sodipodi:cy="292.36218"
       sodipodi:expansion="1"
       sodipodi:revolution="3"
       sodipodi:radius="22.429026"
       sodipodi:argument="-17.118847"
       sodipodi:t0="0"
       d="m 221.42857,292.36218 c -0.17906,1.11021 -1.58488,0.30636 -1.84523,-0.29762 -0.70555,-1.63674 0.93742,-3.16837 2.44047,-3.39285 2.6886,-0.40155 4.81632,2.06137 4.94048,4.58333 0.18221,3.70107 -3.19419,6.49545 -6.72619,6.4881 -4.7076,-0.01 -8.18681,-4.32932 -8.03572,-8.86905 0.19014,-5.71279 5.46534,-9.88428 11.0119,-9.58334 6.71763,0.36449 11.58526,6.60183 11.13096,13.15476 -0.53537,7.7224 -7.7386,13.28842 -15.29761,12.67858 -8.72719,-0.70408 -14.99304,-8.87556 -14.2262,-17.44047 0.87133,-9.732 10.01265,-16.69869 19.58333,-15.77382 10.73685,1.03756 18.40507,11.14985 17.32143,21.72618 -1.20304,11.74174 -12.28712,20.11203 -23.86904,18.86906" />
    <path
       transform="translate(-27.685942,-79.472343)"
       sodipodi:type="spiral"
       style="fill:none;stroke:#a10000;stroke-width:1px;stroke-linecap:butt;stroke-linejoin:miter;stroke-opacity:1"
       id="path3849-7"
       sodipodi:cx="221.42857"
       sodipodi:cy="292.36218"
       sodipodi:expansion="1"
       sodipodi:revolution="3"
       sodipodi:radius="22.429026"
       sodipodi:argument="-17.118847"
       sodipodi:t0="0"
       d="m 221.42857,292.36218 c -0.17906,1.11021 -1.58488,0.30636 -1.84523,-0.29762 -0.70555,-1.63674 0.93742,-3.16837 2.44047,-3.39285 2.6886,-0.40155 4.81632,2.06137 4.94048,4.58333 0.18221,3.70107 -3.19419,6.49545 -6.72619,6.4881 -4.7076,-0.01 -8.18681,-4.32932 -8.03572,-8.86905 0.19014,-5.71279 5.46534,-9.88428 11.0119,-9.58334 6.71763,0.36449 11.58526,6.60183 11.13096,13.15476 -0.53537,7.7224 -7.7386,13.28842 -15.29761,12.67858 -8.72719,-0.70408 -14.99304,-8.87556 -14.2262,-17.44047 0.87133,-9.732 10.01265,-16.69869 19.58333,-15.77382 10.73685,1.03756 18.40507,11.14985 17.32143,21.72618 -1.20304,11.74174 -12.28712,20.11203 -23.86904,18.86906" />
    <path
       sodipodi:type="spiral"
       style="fill:none;stroke:#a10000;stroke-width:1px;stroke-linecap:butt;stroke-linejoin:miter;stroke-opacity:1"
       id="path3849-4"
       sodipodi:cx="221.42857"
       sodipodi:cy="292.36218"
       sodipodi:expansion="1"
       sodipodi:revolution="3"
       sodipodi:radius="22.429026"
       sodipodi:argument="-17.118847"
       sodipodi:t0="0"
       d="m 221.42857,292.36218 c -0.17906,1.11021 -1.58488,0.30636 -1.84523,-0.29762 -0.70555,-1.63674 0.93742,-3.16837 2.44047,-3.39285 2.6886,-0.40155 4.81632,2.06137 4.94048,4.58333 0.18221,3.70107 -3.19419,6.49545 -6.72619,6.4881 -4.7076,-0.01 -8.18681,-4.32932 -8.03572,-8.86905 0.19014,-5.71279 5.46534,-9.88428 11.0119,-9.58334 6.71763,0.36449 11.58526,6.60183 11.13096,13.15476 -0.53537,7.7224 -7.7386,13.28842 -15.29761,12.67858 -8.72719,-0.70408 -14.99304,-8.87556 -14.2262,-17.44047 0.87133,-9.732 10.01265,-16.69869 19.58333,-15.77382 10.73685,1.03756 18.40507,11.14985 17.32143,21.72618 -1.20304,11.74174 -12.28712,20.11203 -23.86904,18.86906"
       transform="translate(12.553572,-35.196433)" />
    <path
       transform="translate(52.546202,-34.490203)"
       sodipodi:type="spiral"
       style="fill:none;stroke:#a10000;stroke-width:1px;stroke-linecap:butt;stroke-linejoin:miter;stroke-opacity:1"
       id="path3849-1-0"
       sodipodi:cx="221.42857"
       sodipodi:cy="292.36218"
       sodipodi:expansion="1"
       sodipodi:revolution="3"
       sodipodi:radius="22.429026"
       sodipodi:argument="-17.118847"
       sodipodi:t0="0"
       d="m 221.42857,292.36218 c -0.17906,1.11021 -1.58488,0.30636 -1.84523,-0.29762 -0.70555,-1.63674 0.93742,-3.16837 2.44047,-3.39285 2.6886,-0.40155 4.81632,2.06137 4.94048,4.58333 0.18221,3.70107 -3.19419,6.49545 -6.72619,6.4881 -4.7076,-0.01 -8.18681,-4.32932 -8.03572,-8.86905 0.19014,-5.71279 5.46534,-9.88428 11.0119,-9.58334 6.71763,0.36449 11.58526,6.60183 11.13096,13.15476 -0.53537,7.7224 -7.7386,13.28842 -15.29761,12.67858 -8.72719,-0.70408 -14.99304,-8.87556 -14.2262,-17.44047 0.87133,-9.732 10.01265,-16.69869 19.58333,-15.77382 10.73685,1.03756 18.40507,11.14985 17.32143,21.72618 -1.20304,11.74174 -12.28712,20.11203 -23.86904,18.86906" />
    <path
       transform="translate(-27.346658,-35.383053)"
       sodipodi:type="spiral"
       style="fill:none;stroke:#a10000;stroke-width:1px;stroke-linecap:butt;stroke-linejoin:miter;stroke-opacity:1"
       id="path3849-7-9"
       sodipodi:cx="221.42857"
       sodipodi:cy="292.36218"
       sodipodi:expansion="1"
       sodipodi:revolution="3"
       sodipodi:radius="22.429026"
       sodipodi:argument="-17.118847"
       sodipodi:t0="0"
       d="m 221.42857,292.36218 c -0.17906,1.11021 -1.58488,0.30636 -1.84523,-0.29762 -0.70555,-1.63674 0.93742,-3.16837 2.44047,-3.39285 2.6886,-0.40155 4.81632,2.06137 4.94048,4.58333 0.18221,3.70107 -3.19419,6.49545 -6.72619,6.4881 -4.7076,-0.01 -8.18681,-4.32932 -8.03572,-8.86905 0.19014,-5.71279 5.46534,-9.88428 11.0119,-9.58334 6.71763,0.36449 11.58526,6.60183 11.13096,13.15476 -0.53537,7.7224 -7.7386,13.28842 -15.29761,12.67858 -8.72719,-0.70408 -14.99304,-8.87556 -14.2262,-17.44047 0.87133,-9.732 10.01265,-16.69869 19.58333,-15.77382 10.73685,1.03756 18.40507,11.14985 17.32143,21.72618 -1.20304,11.74174 -12.28712,20.11203 -23.86904,18.86906" />
    <path
       sodipodi:type="spiral"
       style="fill:none;stroke:#a10000;stroke-width:1px;stroke-linecap:butt;stroke-linejoin:miter;stroke-opacity:1"
       id="path3849-48"
       sodipodi:cx="221.42857"
       sodipodi:cy="292.36218"
       sodipodi:expansion="1"
       sodipodi:revolution="3"
       sodipodi:radius="22.429026"
       sodipodi:argument="-17.118847"
       sodipodi:t0="0"
       d="m 221.42857,292.36218 c -0.17906,1.11021 -1.58488,0.30636 -1.84523,-0.29762 -0.70555,-1.63674 0.93742,-3.16837 2.44047,-3.39285 2.6886,-0.40155 4.81632,2.06137 4.94048,4.58333 0.18221,3.70107 -3.19419,6.49545 -6.72619,6.4881 -4.7076,-0.01 -8.18681,-4.32932 -8.03572,-8.86905 0.19014,-5.71279 5.46534,-9.88428 11.0119,-9.58334 6.71763,0.36449 11.58526,6.60183 11.13096,13.15476 -0.53537,7.7224 -7.7386,13.28842 -15.29761,12.67858 -8.72719,-0.70408 -14.99304,-8.87556 -14.2262,-17.44047 0.87133,-9.732 10.01265,-16.69869 19.58333,-15.77382 10.73685,1.03756 18.40507,11.14985 17.32143,21.72618 -1.20304,11.74174 -12.28712,20.11203 -23.86904,18.86906"
       transform="translate(11.698553,9.28701)" />
    <path
       transform="translate(51.691183,9.99324)"
       sodipodi:type="spiral"
       style="fill:none;stroke:#a10000;stroke-width:1px;stroke-linecap:butt;stroke-linejoin:miter;stroke-opacity:1"
       id="path3849-1-8"
       sodipodi:cx="221.42857"
       sodipodi:cy="292.36218"
       sodipodi:expansion="1"
       sodipodi:revolution="3"
       sodipodi:radius="22.429026"
       sodipodi:argument="-17.118847"
       sodipodi:t0="0"
       d="m 221.42857,292.36218 c -0.17906,1.11021 -1.58488,0.30636 -1.84523,-0.29762 -0.70555,-1.63674 0.93742,-3.16837 2.44047,-3.39285 2.6886,-0.40155 4.81632,2.06137 4.94048,4.58333 0.18221,3.70107 -3.19419,6.49545 -6.72619,6.4881 -4.7076,-0.01 -8.18681,-4.32932 -8.03572,-8.86905 0.19014,-5.71279 5.46534,-9.88428 11.0119,-9.58334 6.71763,0.36449 11.58526,6.60183 11.13096,13.15476 -0.53537,7.7224 -7.7386,13.28842 -15.29761,12.67858 -8.72719,-0.70408 -14.99304,-8.87556 -14.2262,-17.44047 0.87133,-9.732 10.01265,-16.69869 19.58333,-15.77382 10.73685,1.03756 18.40507,11.14985 17.32143,21.72618 -1.20304,11.74174 -12.28712,20.11203 -23.86904,18.86906" />
    <path
       transform="translate(-28.201678,9.10039)"
       sodipodi:type="spiral"
       style="fill:none;stroke:#a10000;stroke-width:1px;stroke-linecap:butt;stroke-linejoin:miter;stroke-opacity:1"
       id="path3849-7-2"
       sodipodi:cx="221.42857"
       sodipodi:cy="292.36218"
       sodipodi:expansion="1"
       sodipodi:revolution="3"
       sodipodi:radius="22.429026"
       sodipodi:argument="-17.118847"
       sodipodi:t0="0"
       d="m 221.42857,292.36218 c -0.17906,1.11021 -1.58488,0.30636 -1.84523,-0.29762 -0.70555,-1.63674 0.93742,-3.16837 2.44047,-3.39285 2.6886,-0.40155 4.81632,2.06137 4.94048,4.58333 0.18221,3.70107 -3.19419,6.49545 -6.72619,6.4881 -4.7076,-0.01 -8.18681,-4.32932 -8.03572,-8.86905 0.19014,-5.71279 5.46534,-9.88428 11.0119,-9.58334 6.71763,0.36449 11.58526,6.60183 11.13096,13.15476 -0.53537,7.7224 -7.7386,13.28842 -15.29761,12.67858 -8.72719,-0.70408 -14.99304,-8.87556 -14.2262,-17.44047 0.87133,-9.732 10.01265,-16.69869 19.58333,-15.77382 10.73685,1.03756 18.40507,11.14985 17.32143,21.72618 -1.20304,11.74174 -12.28712,20.11203 -23.86904,18.86906" />
    <path
       sodipodi:type="spiral"
       style="fill:none;stroke:#a10000;stroke-width:1px;stroke-linecap:butt;stroke-linejoin:miter;stroke-opacity:1"
       id="path3849-4-4"
       sodipodi:cx="221.42857"
       sodipodi:cy="292.36218"
       sodipodi:expansion="1"
       sodipodi:revolution="3"
       sodipodi:radius="22.429026"
       sodipodi:argument="-17.118847"
       sodipodi:t0="0"
       d="m 221.42857,292.36218 c -0.17906,1.11021 -1.58488,0.30636 -1.84523,-0.29762 -0.70555,-1.63674 0.93742,-3.16837 2.44047,-3.39285 2.6886,-0.40155 4.81632,2.06137 4.94048,4.58333 0.18221,3.70107 -3.19419,6.49545 -6.72619,6.4881 -4.7076,-0.01 -8.18681,-4.32932 -8.03572,-8.86905 0.19014,-5.71279 5.46534,-9.88428 11.0119,-9.58334 6.71763,0.36449 11.58526,6.60183 11.13096,13.15476 -0.53537,7.7224 -7.7386,13.28842 -15.29761,12.67858 -8.72719,-0.70408 -14.99304,-8.87556 -14.2262,-17.44047 0.87133,-9.732 10.01265,-16.69869 19.58333,-15.77382 10.73685,1.03756 18.40507,11.14985 17.32143,21.72618 -1.20304,11.74174 -12.28712,20.11203 -23.86904,18.86906"
       transform="translate(12.037843,53.3763)" />
    <path
       transform="translate(52.030473,54.08253)"
       sodipodi:type="spiral"
       style="fill:none;stroke:#a10000;stroke-width:1px;stroke-linecap:butt;stroke-linejoin:miter;stroke-opacity:1"
       id="path3849-1-0-5"
       sodipodi:cx="221.42857"
       sodipodi:cy="292.36218"
       sodipodi:expansion="1"
       sodipodi:revolution="3"
       sodipodi:radius="22.429026"
       sodipodi:argument="-17.118847"
       sodipodi:t0="0"
       d="m 221.42857,292.36218 c -0.17906,1.11021 -1.58488,0.30636 -1.84523,-0.29762 -0.70555,-1.63674 0.93742,-3.16837 2.44047,-3.39285 2.6886,-0.40155 4.81632,2.06137 4.94048,4.58333 0.18221,3.70107 -3.19419,6.49545 -6.72619,6.4881 -4.7076,-0.01 -8.18681,-4.32932 -8.03572,-8.86905 0.19014,-5.71279 5.46534,-9.88428 11.0119,-9.58334 6.71763,0.36449 11.58526,6.60183 11.13096,13.15476 -0.53537,7.7224 -7.7386,13.28842 -15.29761,12.67858 -8.72719,-0.70408 -14.99304,-8.87556 -14.2262,-17.44047 0.87133,-9.732 10.01265,-16.69869 19.58333,-15.77382 10.73685,1.03756 18.40507,11.14985 17.32143,21.72618 -1.20304,11.74174 -12.28712,20.11203 -23.86904,18.86906" />
    <path
       transform="translate(-27.862388,53.18968)"
       sodipodi:type="spiral"
       style="fill:none;stroke:#a10000;stroke-width:1px;stroke-linecap:butt;stroke-linejoin:miter;stroke-opacity:1"
       id="path3849-7-9-5"
       sodipodi:cx="221.42857"
       sodipodi:cy="292.36218"
       sodipodi:expansion="1"
       sodipodi:revolution="3"
       sodipodi:radius="22.429026"
       sodipodi:argument="-17.118847"
       sodipodi:t0="0"
       d="m 221.42857,292.36218 c -0.17906,1.11021 -1.58488,0.30636 -1.84523,-0.29762 -0.70555,-1.63674 0.93742,-3.16837 2.44047,-3.39285 2.6886,-0.40155 4.81632,2.06137 4.94048,4.58333 0.18221,3.70107 -3.19419,6.49545 -6.72619,6.4881 -4.7076,-0.01 -8.18681,-4.32932 -8.03572,-8.86905 0.19014,-5.71279 5.46534,-9.88428 11.0119,-9.58334 6.71763,0.36449 11.58526,6.60183 11.13096,13.15476 -0.53537,7.7224 -7.7386,13.28842 -15.29761,12.67858 -8.72719,-0.70408 -14.99304,-8.87556 -14.2262,-17.44047 0.87133,-9.732 10.01265,-16.69869 19.58333,-15.77382 10.73685,1.03756 18.40507,11.14985 17.32143,21.72618 -1.20304,11.74174 -12.28712,20.11203 -23.86904,18.86906" />
    <path
       sodipodi:type="spiral"
       style="fill:none;stroke:#a10000;stroke-width:1px;stroke-linecap:butt;stroke-linejoin:miter;stroke-opacity:1"
       id="path3849-4-4-1"
       sodipodi:cx="221.42857"
       sodipodi:cy="292.36218"
       sodipodi:expansion="1"
       sodipodi:revolution="3"
       sodipodi:radius="22.429026"
       sodipodi:argument="-17.118847"
       sodipodi:t0="0"
       d="m 221.42857,292.36218 c -0.17906,1.11021 -1.58488,0.30636 -1.84523,-0.29762 -0.70555,-1.63674 0.93742,-3.16837 2.44047,-3.39285 2.6886,-0.40155 4.81632,2.06137 4.94048,4.58333 0.18221,3.70107 -3.19419,6.49545 -6.72619,6.4881 -4.7076,-0.01 -8.18681,-4.32932 -8.03572,-8.86905 0.19014,-5.71279 5.46534,-9.88428 11.0119,-9.58334 6.71763,0.36449 11.58526,6.60183 11.13096,13.15476 -0.53537,7.7224 -7.7386,13.28842 -15.29761,12.67858 -8.72719,-0.70408 -14.99304,-8.87556 -14.2262,-17.44047 0.87133,-9.732 10.01265,-16.69869 19.58333,-15.77382 10.73685,1.03756 18.40507,11.14985 17.32143,21.72618 -1.20304,11.74174 -12.28712,20.11203 -23.86904,18.86906"
       transform="translate(12.193083,98.181918)" />
    <path
       transform="translate(52.185713,98.888148)"
       sodipodi:type="spiral"
       style="fill:none;stroke:#a10000;stroke-width:1px;stroke-linecap:butt;stroke-linejoin:miter;stroke-opacity:1"
       id="path3849-1-0-5-7"
       sodipodi:cx="221.42857"
       sodipodi:cy="292.36218"
       sodipodi:expansion="1"
       sodipodi:revolution="3"
       sodipodi:radius="22.429026"
       sodipodi:argument="-17.118847"
       sodipodi:t0="0"
       d="m 221.42857,292.36218 c -0.17906,1.11021 -1.58488,0.30636 -1.84523,-0.29762 -0.70555,-1.63674 0.93742,-3.16837 2.44047,-3.39285 2.6886,-0.40155 4.81632,2.06137 4.94048,4.58333 0.18221,3.70107 -3.19419,6.49545 -6.72619,6.4881 -4.7076,-0.01 -8.18681,-4.32932 -8.03572,-8.86905 0.19014,-5.71279 5.46534,-9.88428 11.0119,-9.58334 6.71763,0.36449 11.58526,6.60183 11.13096,13.15476 -0.53537,7.7224 -7.7386,13.28842 -15.29761,12.67858 -8.72719,-0.70408 -14.99304,-8.87556 -14.2262,-17.44047 0.87133,-9.732 10.01265,-16.69869 19.58333,-15.77382 10.73685,1.03756 18.40507,11.14985 17.32143,21.72618 -1.20304,11.74174 -12.28712,20.11203 -23.86904,18.86906" />
    <path
       transform="translate(-27.707147,97.995298)"
       sodipodi:type="spiral"
       style="fill:none;stroke:#a10000;stroke-width:1px;stroke-linecap:butt;stroke-linejoin:miter;stroke-opacity:1"
       id="path3849-7-9-5-1"
       sodipodi:cx="221.42857"
       sodipodi:cy="292.36218"
       sodipodi:expansion="1"
       sodipodi:revolution="3"
       sodipodi:radius="22.429026"
       sodipodi:argument="-17.118847"
       sodipodi:t0="0"
       d="m 221.42857,292.36218 c -0.17906,1.11021 -1.58488,0.30636 -1.84523,-0.29762 -0.70555,-1.63674 0.93742,-3.16837 2.44047,-3.39285 2.6886,-0.40155 4.81632,2.06137 4.94048,4.58333 0.18221,3.70107 -3.19419,6.49545 -6.72619,6.4881 -4.7076,-0.01 -8.18681,-4.32932 -8.03572,-8.86905 0.19014,-5.71279 5.46534,-9.88428 11.0119,-9.58334 6.71763,0.36449 11.58526,6.60183 11.13096,13.15476 -0.53537,7.7224 -7.7386,13.28842 -15.29761,12.67858 -8.72719,-0.70408 -14.99304,-8.87556 -14.2262,-17.44047 0.87133,-9.732 10.01265,-16.69869 19.58333,-15.77382 10.73685,1.03756 18.40507,11.14985 17.32143,21.72618 -1.20304,11.74174 -12.28712,20.11203 -23.86904,18.86906" />
    <rect
       style="fill:none;stroke:#000000;stroke-width:1.91988397"
       id="rect2995-1"
       width="142.4801"
       height="242.53088"
       x="165.1331"
       y="-423.34058"
       transform="scale(1,-1)" />
  </g>
</svg>
