<?xml version="1.0" encoding="UTF-8" standalone="no"?>
<!-- Created with Inkscape (http://www.inkscape.org/) -->

<svg
   xmlns:dc="http://purl.org/dc/elements/1.1/"
   xmlns:cc="http://creativecommons.org/ns#"
   xmlns:rdf="http://www.w3.org/1999/02/22-rdf-syntax-ns#"
   xmlns:svg="http://www.w3.org/2000/svg"
   xmlns="http://www.w3.org/2000/svg"
   xmlns:sodipodi="http://sodipodi.sourceforge.net/DTD/sodipodi-0.dtd"
   xmlns:inkscape="http://www.inkscape.org/namespaces/inkscape"
   width="744.09448819"
   height="1052.3622047"
   id="svg2"
   version="1.1"
   inkscape:version="0.48.4 r9939"
   sodipodi:docname="card_back_orig.svg">
  <defs
     id="defs4" />
  <sodipodi:namedview
     id="base"
     pagecolor="#ffffff"
     bordercolor="#666666"
     borderopacity="1.0"
     inkscape:pageopacity="0.0"
     inkscape:pageshadow="2"
     inkscape:zoom="2.8"
     inkscape:cx="311.77315"
     inkscape:cy="752.68375"
     inkscape:document-units="px"
     inkscape:current-layer="layer1"
     showgrid="false"
     inkscape:window-width="1920"
     inkscape:window-height="1018"
     inkscape:window-x="1272"
     inkscape:window-y="-8"
     inkscape:window-maximized="1" />
  <metadata
     id="metadata7">
    <rdf:RDF>
      <cc:Work
         rdf:about="">
        <dc:format>image/svg+xml</dc:format>
        <dc:type
           rdf:resource="http://purl.org/dc/dcmitype/StillImage" />
        <dc:title></dc:title>
      </cc:Work>
    </rdf:RDF>
  </metadata>
  <g
     inkscape:label="Layer 1"
     inkscape:groupmode="layer"
     id="layer1">
    <path
       style="fill:#ffffff;fill-opacity:1;fill-rule:nonzero;stroke:#ffffff;stroke-width:4.46332884;stroke-linecap:square;stroke-linejoin:round;stroke-miterlimit:4;stroke-opacity:1;stroke-dasharray:none;stroke-dashoffset:0"
       d="m 164.33821,302.07129 0,-122.61352 72.79208,0 72.79209,0 0,122.61352 0,122.61351 -72.79209,0 -72.79208,0 0,-122.61351 z m 115.2049,113.83773 c 1.08244,-0.21728 3.5053,-1.11863 5.38411,-2.003 7.73659,-3.64161 12.73935,-11.30127 12.73935,-19.50503 0,-3.52532 -0.58535,-5.89285 -2.33235,-9.43349 -3.4518,-6.99577 -10.37117,-11.35757 -18.02283,-11.36119 -6.70941,-0.003 -12.24464,2.75972 -16.24757,8.10987 -3.63448,4.8577 -4.18669,11.94129 -1.38649,17.78574 1.29553,2.70398 5.18332,6.4912 8.0925,7.88312 2.08574,0.99797 2.51347,1.06618 6.68499,1.06618 4.16446,0 4.59905,-0.069 6.62874,-1.05235 3.17509,-1.53828 5.93853,-4.18009 7.3822,-7.05723 1.13135,-2.25474 1.21537,-2.67746 1.20737,-6.07482 -0.007,-3.2269 -0.12664,-3.88919 -1.024,-5.69626 -1.22716,-2.47122 -4.39277,-5.51138 -6.84426,-6.57301 -2.655,-1.14977 -6.70602,-1.09997 -9.41253,0.11573 -4.42777,1.98884 -6.75978,5.32129 -6.73448,9.62358 0.0412,6.99658 6.75727,11.51996 12.67925,8.5396 1.94289,-0.97781 3.02981,-2.30087 3.5706,-4.34631 0.61333,-2.3198 0.17649,-3.99988 -1.50929,-5.80466 -1.15133,-1.23261 -1.40115,-1.33201 -3.34751,-1.33201 -1.84412,0 -2.2138,0.12599 -2.99964,1.02236 -0.97901,1.11668 -1.21569,3.19798 -0.43208,3.79951 0.86213,0.66181 2.09621,0.76491 2.56218,0.21404 0.36185,-0.42777 0.34579,-0.60391 -0.0791,-0.86775 -0.29327,-0.18207 -0.73224,-0.33354 -0.97551,-0.33661 -0.81955,-0.0103 -0.85221,-0.64272 -0.0828,-1.60245 2.31138,-2.88298 6.93212,1.08259 5.52342,4.74023 -0.5451,1.41531 -2.14067,3.03255 -3.59372,3.64253 -4.06463,1.70631 -8.99819,-1.51571 -9.95101,-6.49882 -0.72328,-3.78261 2.69184,-8.59064 7.05209,-9.92842 4.16244,-1.27708 8.79422,0.23876 11.68205,3.8232 2.03622,2.52739 2.75571,4.87933 2.54603,8.32266 -0.3561,5.8475 -4.37654,10.33793 -10.66613,11.913 -6.62926,1.66013 -14.06925,-2.30706 -17.12978,-9.13401 -1.21397,-2.70796 -1.43729,-8.37965 -0.43898,-11.14906 3.27251,-9.07834 13.7149,-14.0061 23.0224,-10.86429 7.51931,2.53819 13.09074,10.31148 13.09074,18.26425 0,5.70278 -1.90201,10.15412 -6.1279,14.34137 -4.20845,4.16997 -9.25801,6.36072 -14.91868,6.47248 -2.67342,0.0527 -3.09236,0.14743 -3.09295,0.69872 -7.4e-4,0.55031 0.37839,0.63766 2.76643,0.63766 1.52193,0 3.65276,-0.17778 4.73519,-0.39506 l 0,0 z m -80.83677,-1.60228 c 7.00273,-2.30637 12.20503,-7.20344 14.7429,-13.87786 0.69959,-1.83987 0.82152,-2.89362 0.81925,-7.08067 -0.003,-5.69658 -0.45022,-7.21304 -3.46118,-11.73833 -3.57403,-5.37154 -8.93724,-8.46146 -15.45819,-8.90596 -3.4462,-0.23491 -6.70856,0.39183 -10.0783,1.93615 -2.7184,1.24583 -7.07703,5.39903 -8.44182,8.04393 -3.57209,6.92263 -2.50789,14.39783 2.84972,20.01701 6.09776,6.39551 15.68358,6.89999 22.31341,1.17432 6.07135,-5.24335 6.34906,-14.87096 0.58164,-20.16388 -2.82631,-2.59379 -4.69455,-3.29996 -8.7102,-3.29236 -2.9972,0.006 -3.54796,0.11734 -5.33142,1.08086 -4.10123,2.21568 -6.25422,5.92587 -5.90632,10.17815 0.22645,2.76782 1.27,4.83945 3.29412,6.53931 1.99206,1.67296 3.58897,2.17388 6.31366,1.98053 4.17489,-0.29629 7.28508,-3.623 6.86758,-7.34568 -0.38396,-3.42362 -3.38167,-5.83127 -6.22116,-4.99659 -2.54455,0.74798 -3.78449,3.51534 -2.20388,4.91877 0.78056,0.69308 2.29764,0.65623 2.53858,-0.0616 0.0837,-0.24928 -0.27926,-0.61416 -0.80652,-0.81083 -1.08905,-0.40624 -1.22968,-1.15083 -0.37561,-1.98877 1.54287,-1.51375 4.0707,-0.79764 5.16404,1.46291 1.14737,2.37227 0.23965,4.84741 -2.43874,6.64986 -1.76143,1.18538 -5.16084,1.00555 -7.30468,-0.38639 -2.93931,-1.90843 -4.29136,-6.66205 -2.85622,-10.04203 1.45926,-3.43676 5.41549,-5.90532 9.45227,-5.8979 3.95497,0.007 7.02215,1.69942 9.27263,5.11561 2.42018,3.67384 2.74751,7.57465 0.98021,11.68113 -0.96572,2.2439 -4.11232,5.27744 -6.84007,6.59427 -2.26811,1.09494 -2.7625,1.19301 -6.01404,1.19301 -3.28567,0 -3.73086,-0.0908 -6.13442,-1.25177 -11.48831,-5.5489 -12.23439,-21.07125 -1.34378,-27.9574 1.09485,-0.69229 2.84966,-1.59462 3.89957,-2.00518 2.39831,-0.93784 7.14937,-1.26672 9.97528,-0.6905 7.65889,1.56169 14.02072,8.50152 15.15988,16.53725 1.69474,11.95469 -8.78284,23.20176 -21.61439,23.20176 -2.35066,0 -2.5403,0.0584 -2.5403,0.78228 0,0.75856 0.10482,0.77616 3.45362,0.58015 2.29372,-0.13427 4.44416,-0.5284 6.40288,-1.17351 l 0,0 z m 39.86716,0.70931 c 3.6582,-0.84606 7.93671,-3.21645 10.78431,-5.97475 4.12465,-3.99529 6.2235,-8.42582 6.60244,-13.93733 0.28423,-4.13393 -0.30224,-7.01481 -2.20236,-10.81864 -3.5249,-7.05649 -10.29845,-11.36311 -17.92746,-11.39829 -5.76906,-0.0267 -10.06648,1.67241 -14.02001,5.54284 -3.53501,3.4607 -5.19717,6.92931 -5.40961,11.28884 -0.2574,5.2821 1.07051,9.24399 4.26771,12.73292 3.73593,4.07684 7.55807,5.64609 13.11928,5.38635 2.84544,-0.13291 3.94126,-0.35716 5.66281,-1.1589 3.10725,-1.44707 5.9665,-4.17012 7.41967,-7.06621 1.13136,-2.25473 1.21537,-2.67745 1.20737,-6.07482 -0.007,-3.23688 -0.12519,-3.88635 -1.03563,-5.72038 -1.37043,-2.76068 -4.76503,-5.84343 -7.3876,-6.70895 -7.68789,-2.5372 -15.56913,2.45766 -15.56913,9.86719 0,8.05202 8.71982,12.47421 14.473,7.33988 1.94972,-1.74 2.62213,-5.13658 1.45231,-7.33606 -1.13839,-2.14035 -2.36446,-2.91503 -4.61362,-2.91503 -1.79057,0 -2.15881,0.12996 -2.961,1.04497 -1.2852,1.46593 -1.11576,3.48791 0.34977,4.17379 0.81383,0.38088 1.15775,0.39157 1.5784,0.0491 0.78217,-0.63688 0.66245,-1.03288 -0.39064,-1.2922 -1.89468,-0.46656 -0.58783,-2.70029 1.57979,-2.70029 2.42114,0 4.36472,3.2373 3.41854,5.69401 -0.5451,1.4153 -2.14067,3.03255 -3.59371,3.64253 -4.06462,1.70632 -8.9982,-1.5157 -9.95101,-6.49882 -0.72327,-3.7826 2.69185,-8.59064 7.0521,-9.92842 4.16242,-1.27708 8.79422,0.23878 11.68205,3.82319 2.03622,2.5274 2.75571,4.87935 2.54602,8.32269 -0.35968,5.90628 -4.42401,10.3929 -10.81679,11.94071 -2.16185,0.52342 -2.87736,0.54737 -4.98283,0.16674 -5.22737,-0.94499 -9.39742,-4.06538 -11.6693,-8.73193 -1.01834,-2.09169 -1.19928,-2.91075 -1.3393,-6.06223 -0.13267,-2.98585 -0.0291,-4.01208 0.57332,-5.68338 2.16281,-5.99985 7.89363,-10.56198 14.64703,-11.66004 2.49279,-0.40531 3.23156,-0.38586 5.75652,0.1516 3.75969,0.80027 6.30533,2.0479 8.86907,4.34679 8.64147,7.74878 9.22377,20.03238 1.34552,28.38379 -4.06483,4.30894 -9.76602,6.87677 -15.52135,6.99085 -2.70188,0.0535 -3.12257,0.14778 -3.12317,0.69954 -7.4e-4,0.55297 0.3816,0.63696 2.87756,0.63228 1.58304,-0.003 3.94551,-0.25221 5.24993,-0.55389 l 0,0 z m 42.75199,-45.31447 c 10.53425,-3.26176 17.59162,-13.81796 15.98164,-23.90482 -0.59688,-3.73955 -1.34452,-5.68884 -3.32167,-8.66037 -7.23191,-10.86908 -21.86366,-12.54246 -30.91168,-3.53525 -7.18024,7.14785 -7.24689,17.65927 -0.15617,24.62533 2.51384,2.46966 4.33678,3.52033 7.51863,4.33345 12.38922,3.16608 23.40597,-9.18449 17.8542,-20.01584 -1.15884,-2.26083 -4.17021,-5.13817 -6.33279,-6.05093 -7.40765,-3.12653 -15.5668,1.14739 -16.46971,8.62717 -0.46576,3.85845 1.78558,7.96635 5.23878,9.55892 6.46907,2.98342 13.54769,-2.9058 10.62136,-8.8367 -1.63988,-3.32362 -6.09653,-4.01254 -7.83729,-1.2115 -0.39845,0.64115 -0.72508,1.45267 -0.72584,1.80338 -0.002,0.92788 1.4028,2.1584 2.31353,2.02649 1.15557,-0.16736 1.23058,-0.96676 0.1293,-1.37757 -0.52726,-0.19668 -0.95866,-0.59571 -0.95866,-0.88674 0,-0.60787 1.71742,-2.03954 2.44663,-2.03954 1.05128,0 2.43514,0.91022 3.17883,2.09083 2.10515,3.34191 -0.95034,7.74739 -5.37331,7.74739 -2.18534,0 -3.48561,-0.50002 -5.03271,-1.93533 -4.35979,-4.04481 -3.19262,-10.73802 2.43696,-13.97492 2.52458,-1.45156 6.38345,-1.62301 9.09696,-0.40417 2.77216,1.24517 4.42388,2.77384 5.901,5.46131 1.15194,2.09586 1.25811,2.55304 1.25106,5.38743 -0.006,2.66103 -0.15892,3.404 -1.08142,5.27555 -1.36113,2.76146 -3.84419,5.19454 -6.6961,6.56132 -2.00205,0.95948 -2.60626,1.06948 -5.95002,1.08326 -3.50201,0.0143 -3.87403,-0.0583 -6.30267,-1.23131 -6.22698,-3.00767 -9.9837,-10.05417 -8.84313,-16.58707 0.59032,-3.38126 1.91763,-5.92708 4.50502,-8.64081 7.068,-7.41312 18.30475,-7.73545 25.78034,-0.73952 5.29355,4.95389 7.55702,11.82003 6.06525,18.39867 -0.94856,4.18317 -2.51388,6.93612 -5.75633,10.12376 -4.33343,4.26018 -9.72112,6.52574 -15.5187,6.52574 -2.52096,0 -2.70738,0.0538 -2.70738,0.78175 0,0.7601 0.10021,0.77602 3.62103,0.57493 2.03548,-0.11626 4.67807,-0.53411 6.03506,-0.95429 z m -43.63812,-0.21995 c 3.43856,-0.70588 8.04534,-2.98016 10.62829,-5.24699 8.32209,-7.30356 10.03065,-18.87503 4.10248,-27.78468 -7.23196,-10.86918 -21.91027,-12.56643 -30.93984,-3.57758 -7.18023,7.14784 -7.24689,17.65927 -0.15617,24.62535 2.51385,2.46964 4.33679,3.52032 7.51863,4.33344 10.7362,2.74365 21.25554,-6.42948 19.05257,-16.61434 -1.39426,-6.44609 -7.21983,-10.94542 -13.52162,-10.44333 -7.16477,0.57085 -12.01446,7.01242 -10.11241,13.43175 2.00452,6.76517 10.57741,8.801 14.85237,3.52701 2.99445,-3.69424 0.61889,-9.52325 -3.85642,-9.46264 -0.78556,0.0106 -1.76961,0.19856 -2.1868,0.41762 -1.06348,0.55842 -1.9876,2.45852 -1.71465,3.52553 0.25175,0.98412 1.70111,1.80215 2.59602,1.46521 0.86418,-0.32535 0.70339,-0.94257 -0.34771,-1.33466 -1.19687,-0.44645 -1.17913,-1.21115 0.0501,-2.15982 1.11962,-0.86407 1.81977,-0.92455 3.03623,-0.26225 3.23314,1.76026 2.94677,6.47948 -0.51395,8.46931 -2.91945,1.67863 -6.20793,1.11814 -8.64226,-1.47295 -4.05428,-4.31536 -2.44143,-10.95204 3.38234,-13.91789 0.6611,-0.33668 2.39501,-0.68807 3.85316,-0.78089 2.25952,-0.14381 2.9478,-0.0355 4.65929,0.73327 2.77215,1.24518 4.42386,2.77383 5.90099,5.46132 1.14625,2.08547 1.25939,2.56709 1.26573,5.38742 0.006,2.69752 -0.13392,3.37877 -1.08477,5.27885 -1.38832,2.77425 -3.86502,5.1958 -6.70742,6.55801 -2.00204,0.9595 -2.60626,1.06951 -5.95001,1.08326 -3.50423,0.0145 -3.87298,-0.0578 -6.31063,-1.23515 -4.65686,-2.24928 -7.91378,-6.61045 -8.82211,-11.81317 -1.40247,-8.03297 4.56785,-16.39468 13.29903,-18.62594 8.42594,-2.15327 17.4877,2.25574 21.47533,10.44884 2.18554,4.49049 2.59336,8.45323 1.35773,13.19329 -1.02901,3.94746 -2.34627,6.16102 -5.57138,9.36227 -4.34773,4.31559 -9.6292,6.51935 -15.62413,6.51935 -2.33385,0 -2.58145,0.0699 -2.58145,0.72874 0,0.65741 0.24543,0.72814 2.50688,0.72245 1.37877,-0.004 3.67673,-0.24649 5.10657,-0.54001 z m -41.33521,-0.22081 c 2.85761,-0.58482 7.57432,-2.88233 10.12236,-4.93061 2.84442,-2.28652 5.73531,-6.4617 6.90362,-9.97054 1.25385,-3.76571 1.28484,-9.22071 0.074,-12.99935 -0.97747,-3.05009 -3.88816,-7.5186 -6.14321,-9.43108 -3.77879,-3.20476 -8.30917,-4.91845 -13.06953,-4.94376 -5.35782,-0.0285 -9.69476,1.54964 -13.42035,4.88341 -4.56049,4.08083 -6.30687,8.26933 -6.00578,14.40409 0.1598,3.25591 0.31355,3.87818 1.5792,6.3913 1.67759,3.33112 5.09508,6.68706 8.31462,8.1649 1.8962,0.8704 2.53314,0.96557 6.55688,0.97969 4.18809,0.0146 4.59094,-0.0486 6.68499,-1.05061 2.91416,-1.39441 6.24187,-4.66569 7.5117,-7.38433 0.83957,-1.79749 0.98951,-2.62722 1.00823,-5.57947 0.0203,-3.20359 -0.0707,-3.65287 -1.19398,-5.89264 -1.52311,-3.03706 -4.35388,-5.66495 -7.16496,-6.65145 -7.64891,-2.68424 -15.80816,2.50353 -15.68883,9.97518 0.0862,5.39427 3.74996,9.23527 8.84285,9.27052 4.25862,0.0295 7.27281,-2.48587 7.51992,-6.27537 0.16333,-2.50471 -0.61894,-4.20738 -2.50618,-5.45499 -2.69034,-1.77848 -6.3136,-0.24129 -6.3136,2.67859 0,1.45053 1.50371,2.75361 2.4802,2.14927 0.86657,-0.5363 0.75823,-1.01985 -0.34472,-1.5385 -1.23388,-0.58023 -1.2707,-0.9129 -0.20852,-1.88382 2.53157,-2.314 6.49973,1.187 5.4745,4.82999 -0.38971,1.38474 -2.28434,3.31621 -3.8046,3.87856 -3.15791,1.16811 -7.18752,-0.67484 -9.09681,-4.16044 -0.90932,-1.66006 -0.80277,-5.46029 0.20587,-7.34186 1.89037,-3.52641 6.40523,-5.93712 10.19537,-5.44383 3.91523,0.50957 7.42879,3.02041 9.21294,6.58368 0.76102,1.51986 0.91346,2.36556 0.91961,5.1013 0.006,2.85935 -0.12525,3.54441 -1.02809,5.3482 -1.42602,2.84906 -4.688,5.75259 -7.73846,6.88809 -6.26325,2.33143 -13.37382,-0.0529 -17.31506,-5.80637 -6.96114,-10.16175 -0.59804,-23.31476 12.36585,-25.5611 7.00927,-1.21454 14.81944,2.59868 18.80552,9.1816 4.84192,7.99634 3.59932,17.46389 -3.16688,24.12903 -4.24282,4.17946 -9.58736,6.48865 -15.17316,6.55579 -2.39225,0.0288 -2.8866,0.13843 -3.02919,0.67203 -0.1516,0.56738 0.15125,0.63767 2.74768,0.63767 1.60492,0 3.80367,-0.18125 4.88611,-0.40277 l 0,0 z m 85.46696,-44.90061 c 6.92201,-2.46514 12.35948,-7.97154 14.45369,-14.63697 1.11948,-3.56306 1.12262,-8.5488 0.007,-12.02451 -2.23591,-6.96941 -7.86888,-12.52698 -14.38463,-14.1921 -2.51723,-0.64327 -7.38378,-0.72827 -9.84462,-0.17192 -4.11718,0.9308 -9.01045,4.19176 -11.43878,7.62301 -4.36789,6.17187 -4.39585,13.81206 -0.0734,20.057 1.77489,2.56432 3.55859,4.05999 6.49188,5.44362 2.86721,1.35244 5.24069,1.72957 8.77759,1.39473 3.72029,-0.3522 6.58773,-1.68229 9.24738,-4.28949 5.44921,-5.34173 5.83247,-13.33291 0.90431,-18.8553 -2.44287,-2.73743 -5.64959,-4.22167 -9.07552,-4.20062 -3.45066,0.0212 -5.9106,0.88032 -8.13242,2.8402 -2.55359,2.25258 -3.52256,4.3816 -3.55567,7.81248 -0.0225,2.34549 0.12114,2.99108 1.01445,4.55473 1.86447,3.26359 5.62788,5.25015 9.00486,4.75329 2.44,-0.35899 4.90796,-2.09794 5.80678,-4.09153 1.91521,-4.24795 -0.90258,-8.92188 -5.0498,-8.37623 -1.65323,0.21751 -3.5606,1.8869 -3.5606,3.11635 0,1.0856 1.46467,2.64863 2.36402,2.52278 1.05388,-0.14746 1.10363,-1.56817 0.0549,-1.56911 -1.04719,-0.001 -1.12404,-1.07203 -0.14134,-1.97028 1.16207,-1.0622 2.67856,-0.96485 4.07782,0.26178 0.93623,0.82075 1.20166,1.38058 1.33882,2.82395 0.21691,2.28254 -0.84345,3.98228 -3.24061,5.19457 -3.457,1.7483 -7.3262,0.2722 -9.39126,-3.58274 -0.89484,-1.67043 -1.04581,-2.3263 -0.92113,-4.00194 0.26386,-3.54578 2.29432,-6.39822 5.73889,-8.06211 2.52805,-1.22116 6.24629,-1.16189 8.86237,0.14126 2.25749,1.12453 4.7746,3.71391 5.86652,6.03494 1.2313,2.61734 1.11683,7.19099 -0.24946,9.96709 -1.39977,2.84414 -4.65215,5.74564 -7.72091,6.88795 -10.77995,4.01272 -22.30801,-6.11795 -20.02655,-17.59899 1.74182,-8.76535 11.36246,-15.30469 20.29088,-13.79211 8.95638,1.51731 15.76462,9.09766 16.38564,18.24386 0.76415,11.25422 -9.34265,21.50681 -21.33741,21.64521 -2.6104,0.0301 -3.06272,0.12608 -3.06395,0.64992 -10e-4,0.4274 0.36613,0.64936 1.20555,0.72876 2.31071,0.21859 6.85909,-0.40723 9.3141,-1.28153 l 2e-5,0 z m -44.13175,0.0536 c 2.67146,-0.55935 6.97965,-2.58135 9.20657,-4.32097 10.69769,-8.35688 11.60847,-23.07532 2.00693,-32.43275 -2.29055,-2.23231 -6.21233,-4.39446 -9.17085,-5.05603 -2.15213,-0.48123 -7.14208,-0.48027 -9.27438,0.002 -5.06048,1.14406 -10.79086,5.63185 -12.97376,10.16048 -2.76426,5.73472 -2.22552,12.19253 1.46157,17.51955 1.77636,2.56642 3.56226,4.06311 6.48812,5.43738 3.02786,1.4222 5.59909,1.82784 8.97744,1.41633 3.63368,-0.44261 6.50391,-1.8077 9.05131,-4.30485 2.30193,-2.25655 3.54679,-4.55274 4.12678,-7.61206 1.48474,-7.8317 -4.65842,-15.4908 -12.38668,-15.44333 -4.73593,0.0291 -8.59072,2.23025 -10.59939,6.05246 -0.79404,1.51095 -0.9854,2.38784 -1.00374,4.59968 -0.0195,2.34159 0.12634,2.99368 1.01818,4.55473 2.01656,3.52984 6.448,5.61696 9.82095,4.62547 3.73948,-1.09923 5.86042,-3.88403 5.53288,-7.26472 -0.32601,-3.36494 -2.63858,-5.4638 -5.59201,-5.07521 -1.65323,0.21751 -3.56059,1.8869 -3.56059,3.11634 0,1.08559 1.46467,2.64863 2.36403,2.52278 1.05386,-0.14746 1.10361,-1.56816 0.0549,-1.5691 -1.04721,-0.001 -1.12405,-1.07204 -0.14136,-1.97029 1.53459,-1.40269 3.82098,-0.74511 4.96657,1.42839 1.17547,2.23025 0.44725,4.67141 -1.92262,6.44489 -1.15259,0.86252 -1.71849,1.02087 -3.64854,1.02087 -2.83096,0 -4.85589,-1.16747 -6.34293,-3.65704 -2.1458,-3.59242 -1.56054,-7.21991 1.67631,-10.39 3.41001,-3.33969 7.07724,-4.00143 11.61491,-2.09586 2.10383,0.8835 4.86774,3.67625 5.9809,6.04333 1.23834,2.63326 1.12737,7.19857 -0.24263,9.98223 -2.67725,5.43976 -9.40376,8.77233 -15.31768,7.58894 -6.43625,-1.2879 -11.31284,-6.39194 -12.47834,-13.06036 -1.52683,-8.73579 5.39916,-17.43363 15.12335,-18.99229 7.75248,-1.24262 16.01645,3.29357 19.67324,10.79886 3.74191,7.68 2.07971,16.46668 -4.30431,22.75324 -4.0275,3.96601 -10.92933,6.7334 -16.11904,6.46315 -1.479,-0.0771 -1.88571,0.0256 -1.9787,0.49932 -0.086,0.4382 0.20885,0.62735 1.11236,0.71354 1.74603,0.16654 4.63406,-0.0453 6.8002,-0.49889 l 0,-4e-5 z m -41.96686,-0.11527 c 1.42984,-0.29351 3.98998,-1.20602 5.68919,-2.0278 8.93625,-4.32177 14.00179,-13.81052 12.34771,-23.12972 -1.51732,-8.54864 -8.45798,-15.50895 -16.90414,-16.95205 -8.82933,-1.50853 -18.11383,3.50238 -21.42927,11.56556 -0.74894,1.82145 -0.87262,2.74821 -0.87262,6.53914 l 0,4.41691 1.63037,3.15399 c 2.45812,4.75528 6.32131,7.83299 11.22404,8.94191 6.95989,1.57423 14.51834,-1.94006 17.58567,-8.17646 0.95934,-1.95049 1.07746,-2.57924 1.09513,-5.83007 0.018,-3.30454 -0.0809,-3.84658 -1.06207,-5.82211 -1.31837,-2.65446 -3.84331,-5.19703 -6.33291,-6.37712 -1.52723,-0.72392 -2.4504,-0.88349 -5.19943,-0.89867 -2.93293,-0.0163 -3.57492,0.10173 -5.23939,0.96278 -2.53131,1.30942 -5.09916,4.15602 -5.75243,6.3769 -1.44107,4.89902 0.55067,9.78116 4.7621,11.67283 5.36022,2.40769 11.24346,-0.68434 11.24346,-5.90915 0,-3.37978 -2.01727,-5.64923 -5.02394,-5.65198 -1.38759,-0.001 -2.9583,0.70336 -3.60514,1.61723 -0.48421,0.6841 -0.30125,2.68522 0.29937,3.27451 0.7243,0.71063 2.23948,0.74788 2.50787,0.0616 0.24712,-0.63178 -0.0473,-0.94657 -0.88531,-0.94657 -1.58103,0 -0.80946,-2.26686 0.91619,-2.6918 3.27384,-0.80617 5.77227,4.01976 3.61788,6.98823 -1.70346,2.34714 -5.13839,3.36274 -7.87533,2.32848 -4.30967,-1.62858 -6.27763,-7.19425 -4.063,-11.49079 2.25989,-4.38435 7.77617,-6.41502 12.83824,-4.72607 2.6101,0.87087 5.71937,3.99922 6.81994,6.8618 2.30726,6.00118 -0.71169,12.91274 -6.95717,15.92775 -2.31232,1.11628 -2.72235,1.19407 -6.19655,1.17554 -4.78089,-0.0256 -7.0012,-0.93738 -10.35394,-4.25242 -2.84924,-2.81719 -4.16956,-5.45069 -4.65348,-9.28178 -0.65077,-5.15203 0.95694,-9.52143 4.94554,-13.4408 10.22567,-10.04826 27.47194,-4.80468 31.21319,9.4901 2.62138,10.01588 -3.68037,20.71612 -14.28713,24.2593 -1.48497,0.49606 -3.73614,0.87808 -5.84936,0.99264 -3.03615,0.1646 -3.43534,0.26516 -3.43534,0.86535 0,0.59079 0.30185,0.67828 2.32117,0.67278 1.27665,-0.004 3.49105,-0.24648 4.92089,-0.54001 l 0,0 z m 83.93374,-44.46002 c 8.68213,-1.80163 15.89287,-8.60038 17.87044,-16.84941 2.13768,-8.91679 -2.49107,-19.00611 -10.6492,-23.21218 -7.26139,-3.74374 -15.4367,-2.94352 -21.9208,2.14568 -10.36619,8.13615 -8.23309,24.58485 3.83577,29.57824 7.52065,3.1116 16.64197,-0.20263 20.15976,-7.32506 0.9682,-1.96032 1.081,-2.56354 1.09134,-5.83645 0.0108,-3.40144 -0.0716,-3.81602 -1.20911,-6.08416 -1.35642,-2.7047 -3.53709,-4.83057 -6.31244,-6.15378 -1.41568,-0.67495 -2.39263,-0.83865 -5.09409,-0.85358 -2.93294,-0.0163 -3.57493,0.10173 -5.2394,0.96278 -2.40725,1.24525 -5.06106,4.1243 -5.69362,6.17685 -2.09353,6.79319 2.51482,13.10756 9.21893,12.63176 3.98944,-0.28311 6.75506,-3.09523 6.78509,-6.89918 0.0369,-4.67843 -4.90778,-7.28554 -8.16724,-4.30621 -1.54057,1.40817 -0.69043,4.34971 1.25713,4.34971 0.45713,0 0.92109,-0.22992 1.03101,-0.51094 0.2471,-0.6318 -0.0473,-0.94658 -0.88532,-0.94658 -0.95493,0 -1.1459,-0.94708 -0.37844,-1.87696 1.0489,-1.27092 3.18321,-1.12976 4.48201,0.29641 3.03609,3.33384 0.5457,8.07848 -4.42542,8.43127 -2.68141,0.19029 -4.76351,-0.76385 -6.34704,-2.9086 -3.32752,-4.5068 -1.62734,-10.37243 3.77409,-13.0206 4.05717,-1.98914 8.37268,-1.3721 11.84868,1.69414 2.67534,2.35997 3.7837,4.66971 3.98059,8.2953 0.12701,2.33906 0.005,3.31423 -0.61868,4.93547 -1.12103,2.91518 -3.95832,5.88412 -7.0236,7.34948 -2.30661,1.10266 -2.75067,1.18699 -6.1985,1.17709 -3.30906,-0.009 -3.94595,-0.12257 -5.8431,-1.03714 -4.13122,-1.9916 -7.03747,-5.20327 -8.46794,-9.35789 -0.66199,-1.92267 -0.78005,-2.95861 -0.66421,-5.82859 0.12417,-3.07631 0.2905,-3.78949 1.40227,-6.01226 3.72244,-7.44236 12.74977,-11.55576 20.76625,-9.46237 6.6539,1.73758 12.33159,7.46286 13.99162,14.10892 0.81252,3.25299 0.57863,8.29509 -0.52648,11.34982 -2.95623,8.17157 -11.56497,14.06891 -20.56555,14.08825 -2.25745,0.005 -2.50688,0.0779 -2.50688,0.73414 0,0.6517 0.24544,0.72809 2.32117,0.72244 1.27666,-0.004 3.49106,-0.2491 4.92091,-0.54581 z m -38.74146,-1.5333 c 9.25016,-3.12823 15.50456,-11.47634 15.5242,-20.72107 0.0203,-9.52531 -6.82718,-18.23677 -16.0025,-20.35877 -11.8597,-2.74281 -23.73055,5.98046 -23.73055,17.43838 0,5.05843 1.7155,9.20773 5.22023,12.62621 7.71996,7.52999 20.78886,5.55509 25.43057,-3.84295 0.9682,-1.96031 1.081,-2.56352 1.09134,-5.83644 0.0109,-3.40143 -0.0716,-3.81603 -1.2091,-6.08416 -1.35642,-2.70471 -3.53709,-4.83056 -6.31245,-6.15378 -1.41521,-0.67473 -2.39351,-0.83879 -5.0941,-0.85421 -3.81088,-0.0218 -5.34746,0.5639 -8.16538,3.11237 -4.17323,3.77415 -4.3546,10.49635 -0.38525,14.27859 3.94365,3.75774 10.60394,3.06974 12.89263,-1.33182 2.28514,-4.39469 -0.86013,-9.54044 -5.24139,-8.57506 -2.48229,0.54694 -3.81717,3.21383 -2.38553,4.76591 0.72735,0.78856 2.19321,0.88053 2.47683,0.15542 0.25042,-0.64031 -0.0489,-0.94658 -0.92505,-0.94658 -0.47984,0 -0.68088,-0.2707 -0.68088,-0.91684 0,-1.35585 2.07772,-2.28779 3.53689,-1.58646 2.68605,1.29101 3.40389,4.61122 1.52075,7.03382 -1.28703,1.65572 -2.93566,2.39474 -5.32424,2.38668 -4.56144,-0.0154 -8.29678,-4.97043 -7.19817,-9.54855 1.37538,-5.73154 7.62639,-8.96287 13.52437,-6.99116 2.25828,0.75496 5.24135,3.41113 6.46585,5.75733 1.39275,2.66858 1.60051,6.87805 0.48293,9.78512 -1.11697,2.90544 -3.87125,5.77157 -6.99589,7.28001 -2.30096,1.1108 -2.7277,1.19224 -6.19168,1.18168 -3.30072,-0.0102 -3.96117,-0.126 -5.85499,-1.02809 -3.27892,-1.56184 -5.97544,-4.20027 -7.61092,-7.44699 -1.37074,-2.72117 -1.39611,-2.84817 -1.39611,-6.98845 0,-4.0638 0.0462,-4.30926 1.27195,-6.75991 3.02199,-6.04177 9.50528,-10.00411 16.36898,-10.00411 8.38057,0 16.32044,6.30601 18.39438,14.60919 0.83511,3.34342 0.61004,8.38682 -0.51032,11.43526 -2.99181,8.1406 -11.59519,14.00391 -20.57662,14.0232 -2.31477,0.005 -2.50687,0.0652 -2.50687,0.78768 0,0.7591 0.10346,0.77624 3.48755,0.57815 2.45337,-0.14361 4.41302,-0.51712 6.60854,-1.2596 l 0,0 z m -43.38895,0.42145 c 7.34922,-1.83847 13.48154,-7.20735 16.20381,-14.18651 1.30319,-3.34102 1.48764,-9.41653 0.39453,-12.99625 -2.18708,-7.16233 -8.09073,-12.84513 -15.05917,-14.49582 -2.52684,-0.59857 -6.97855,-0.53382 -9.54982,0.1389 -7.04239,1.84251 -12.28533,6.91898 -13.84374,13.4042 -1.92372,8.00554 1.88202,16.05883 9.27299,19.62246 2.49772,1.20431 2.74769,1.24972 6.8785,1.24972 4.07767,0 4.405,-0.0573 6.71638,-1.17362 6.03074,-2.9129 9.15369,-8.32722 8.4627,-14.67207 -0.49178,-4.51566 -3.18343,-8.34402 -7.14723,-10.16563 -2.87208,-1.31991 -4.761,-1.59628 -7.50654,-1.09833 -5.3434,0.96915 -8.94425,4.67213 -9.3437,9.60874 -0.228,2.81777 0.32532,4.77498 1.93445,6.84264 1.73644,2.23122 4.14511,3.36783 7.06963,3.33601 2.58129,-0.0281 4.05447,-0.66972 5.66207,-2.46612 2.14138,-2.39285 2.416,-5.17472 0.77019,-7.80174 -0.88255,-1.40872 -2.41204,-2.26854 -4.03533,-2.26854 -3.12217,0 -5.22528,3.2865 -3.25537,5.08711 0.98109,0.89679 1.99396,0.95994 2.313,0.14423 0.27698,-0.70816 0.1454,-0.88065 -0.7706,-1.01021 -1.02047,-0.14432 -1.06102,-1.49764 -0.0654,-2.18186 1.86863,-1.28414 4.33504,-0.23577 5.15082,2.18941 0.84834,2.52196 -0.37704,5.01192 -3.10385,6.30704 -1.96121,0.93148 -3.67923,0.95432 -5.65202,0.075 -4.1338,-1.84228 -5.87252,-7.13041 -3.71679,-11.30425 1.73214,-3.35368 4.97176,-5.26838 8.94482,-5.28661 4.60878,-0.0211 8.34437,2.4747 10.52112,7.02943 0.80486,1.6841 0.97111,2.53319 0.93612,4.78066 -0.0981,6.2975 -4.7839,11.47171 -11.56333,12.76846 -6.2029,1.18647 -13.12269,-2.66444 -16.13443,-8.97891 -1.56895,-3.2895 -1.86161,-7.99093 -0.69902,-11.22991 2.16844,-6.04137 7.00707,-10.1964 13.6537,-11.72472 8.93932,-2.0555 18.78366,4.04026 21.72636,13.4533 3.1714,10.14458 -2.88636,21.35129 -13.52431,25.01967 -2.71534,0.93636 -7.08882,1.58967 -8.68047,1.29672 -1.10167,-0.20277 -1.26273,-0.13736 -1.26273,0.51286 0,0.68946 0.22538,0.74526 3.01036,0.74526 1.65568,0 4.03722,-0.25687 5.29227,-0.57085 z m 83.42044,-44.23312 c 6.30716,-1.71203 11.96782,-6.41938 14.69628,-12.22134 1.50087,-3.19154 2.03195,-5.6338 2.00461,-9.21851 -0.0285,-3.72921 -0.93973,-6.96957 -2.91034,-10.34876 -2.7349,-4.68975 -6.82443,-7.90041 -12.05255,-9.46234 -3.38224,-1.01046 -8.98024,-0.81252 -12.30301,0.43501 -7.61376,2.85862 -12.46809,9.44506 -12.44216,16.88175 0.018,5.16202 1.50791,8.70595 5.16215,12.27877 3.85504,3.76913 7.80173,5.18166 13.0906,4.68511 5.42428,-0.50924 10.18601,-3.79561 12.49064,-8.62058 0.88263,-1.84784 0.99962,-2.52778 0.98767,-5.73992 -0.0164,-4.40574 -0.69398,-6.14927 -3.53527,-9.09682 -3.04559,-3.15947 -6.73292,-4.4451 -10.87298,-3.79094 -5.74961,0.90847 -9.57915,5.04528 -9.57915,10.34774 0,6.50786 5.68827,11.01212 11.51069,9.11473 2.09016,-0.68115 4.35123,-2.82988 4.70406,-4.47036 0.11961,-0.55617 0.27639,-1.30213 0.34839,-1.65771 0.22868,-1.12934 -0.54993,-3.15738 -1.70982,-4.45348 -1.7963,-2.00727 -4.64662,-2.16883 -6.48265,-0.36747 -1.19442,1.17189 -1.23042,3.19254 -0.0711,3.98926 1.07381,0.73794 2.006,0.72122 2.30424,-0.0413 0.24078,-0.61562 -0.32767,-1.19754 -1.17986,-1.20778 -0.77077,-0.009 -0.5214,-1.38248 0.36117,-1.989 1.31936,-0.90667 2.82512,-0.71085 3.99683,0.51981 2.91788,3.06464 0.59101,8.03704 -4.04659,8.64733 -4.21716,0.55497 -8.3277,-3.35621 -8.31579,-7.91247 0.006,-2.37734 0.68999,-4.112 2.35367,-5.97105 4.10439,-4.58642 11.7303,-4.37787 15.94918,0.43619 2.25161,2.56925 3.08687,5.06516 2.88873,8.63207 -0.33934,6.10875 -4.25383,10.49041 -10.78457,12.0716 -6.3795,1.5446 -13.47301,-2.04995 -16.6315,-8.42781 -1.21158,-2.44647 -1.26344,-2.72238 -1.26988,-6.75606 -0.006,-4.12959 0.0185,-4.2553 1.38459,-6.97123 3.39225,-6.74357 11.39778,-10.95986 18.62375,-9.80863 11.34983,1.80825 18.91243,13.27153 15.99803,24.24955 -1.42602,5.37147 -6.11805,10.92875 -11.31577,13.40244 -3.16717,1.50732 -8.22548,2.63402 -10.63107,2.368 -1.38886,-0.15359 -1.62473,-0.0837 -1.62473,0.48124 0,0.47929 0.33166,0.69228 1.207,0.77509 1.70151,0.16095 5.73046,-0.24847 7.69649,-0.78212 l 0,0 z m -42.88551,-0.45023 c 4.56925,-0.96787 9.28552,-3.67328 12.45811,-7.1464 2.13253,-2.33453 4.54141,-6.93537 5.14937,-9.83505 0.58215,-2.77661 0.46196,-7.1674 -0.27165,-9.92397 -0.81137,-3.04872 -3.39483,-7.47923 -5.59259,-9.59103 -2.27242,-2.18352 -5.58974,-4.09927 -8.71521,-5.03302 -3.37798,-1.0092 -8.97391,-0.81225 -12.31273,0.43333 -10.54451,3.93374 -15.34087,15.02706 -10.69221,24.72956 1.22844,2.56398 5.20371,6.5161 7.72109,7.67614 4.50584,2.07634 9.88039,2.088 14.13981,0.0307 2.79934,-1.35211 5.78301,-4.36392 7.14227,-7.20965 0.88261,-1.84783 0.99961,-2.52778 0.98767,-5.73993 -0.0164,-4.40573 -0.694,-6.14927 -3.53528,-9.0968 -3.05629,-3.17059 -6.73077,-4.44545 -10.90978,-3.78513 -5.73768,0.90658 -9.50557,5.04405 -9.48778,10.4184 0.0215,6.49375 5.64641,10.9315 11.45611,9.03825 2.0849,-0.67943 4.34422,-2.82255 4.71272,-4.47034 0.12438,-0.55619 0.29736,-1.23376 0.38441,-1.50574 0.29674,-0.92703 -0.62045,-3.33824 -1.74986,-4.60031 -1.80103,-2.01253 -4.64907,-2.17612 -6.48728,-0.37262 -1.19442,1.17188 -1.23043,3.19254 -0.0711,3.98926 1.07381,0.73792 2.006,0.72121 2.30424,-0.0413 0.24078,-0.61565 -0.32766,-1.19755 -1.17986,-1.20779 -0.77076,-0.009 -0.5214,-1.3825 0.36118,-1.989 1.31935,-0.90669 2.8251,-0.71084 3.99682,0.5198 2.91788,3.06465 0.59101,8.03704 -4.0466,8.64733 -4.23313,0.55707 -8.36696,-3.38497 -8.33647,-7.94968 0.0239,-3.57632 2.03169,-6.48418 5.80707,-8.41026 2.24332,-1.14446 6.09073,-1.1088 8.62444,0.08 2.61896,1.22875 5.15456,3.89613 6.13168,6.45033 1.08874,2.84594 0.92192,7.10663 -0.38179,9.75134 -2.52954,5.13137 -9.2571,8.57647 -14.78019,7.56873 -5.08064,-0.92701 -9.35669,-4.13426 -11.64262,-8.73251 -1.17829,-2.37023 -1.23302,-2.6663 -1.23593,-6.68801 -0.003,-4.12983 0.0228,-4.25934 1.38826,-6.97122 3.39465,-6.74206 11.39968,-10.95698 18.62375,-9.80606 9.48213,1.51068 16.56668,9.74383 16.56668,19.25259 0,5.75209 -1.87059,10.02982 -6.27127,14.34138 -2.10503,2.06237 -3.53966,3.10382 -5.61315,4.07481 -3.19261,1.49506 -8.25288,2.61421 -10.63107,2.3512 -1.38797,-0.15349 -1.62474,-0.0835 -1.62474,0.48012 0,0.44766 0.32836,0.69852 1.02131,0.78021 1.47989,0.1745 4.45265,-0.0543 6.59215,-0.50759 z m -39.22594,-0.77545 c 7.50876,-2.56202 13.2153,-8.42876 15.07434,-15.49753 1.17797,-4.47915 0.60633,-10.61228 -1.339,-14.36586 -3.14047,-6.05965 -7.52319,-9.69248 -13.50373,-11.19317 -4.98993,-1.25213 -8.74205,-0.87401 -13.5571,1.36623 -3.2416,1.50819 -7.01882,4.98981 -8.62752,7.95234 -5.91105,10.88562 1.19356,24.1438 13.49644,25.1862 6.07084,0.51439 12.18715,-2.82304 14.93937,-8.15179 2.72653,-5.27901 1.57293,-11.98946 -2.74186,-15.94928 -2.73381,-2.5089 -4.69581,-3.26428 -8.5245,-3.28203 -3.62732,-0.0169 -5.62559,0.68591 -8.04253,2.82826 -2.35951,2.09146 -3.28665,4.27769 -3.27474,7.72208 0.0118,3.39191 0.76132,5.16159 3.00499,7.09438 1.85972,1.60204 3.43916,2.19889 5.79347,2.18928 6.45087,-0.0264 10.03106,-6.66672 5.89457,-10.93302 -1.28717,-1.32756 -1.56526,-1.44786 -3.34683,-1.44786 -1.65235,0 -2.10541,0.15932 -3.02861,1.06511 -1.8262,1.79173 -1.04921,4.65871 1.17586,4.33877 1.21314,-0.17444 1.30165,-0.96707 0.15574,-1.39452 -1.20839,-0.45077 -1.11916,-1.29054 0.24303,-2.2874 1.20606,-0.8826 2.39833,-0.66767 3.77188,0.67996 1.76482,1.73151 1.77412,4.28644 0.0231,6.32818 -3.17837,3.70599 -8.92229,2.81453 -11.35963,-1.76304 -4.02336,-7.55622 4.29298,-15.59217 12.85472,-12.42131 2.70554,1.00201 4.90663,3.07983 6.37781,6.02067 0.93835,1.87573 1.07901,2.55756 1.0484,5.08145 -0.0292,2.40956 -0.21801,3.28705 -1.08861,5.06038 -1.27614,2.59933 -4.08664,5.33485 -6.86009,6.67706 -1.82894,0.8851 -2.4506,0.98851 -5.94221,0.98851 -3.55658,0 -4.09337,-0.0934 -6.10282,-1.06252 -4.35443,-2.09993 -7.76062,-6.4195 -8.79554,-11.15406 -2.1045,-9.62774 5.76751,-19.16782 16.4248,-19.90523 6.70237,-0.46375 13.06158,2.8086 16.96798,8.73147 2.3327,3.53681 3.1616,6.33639 3.15753,10.66439 -0.004,4.08874 -0.81138,6.82532 -3.12815,10.6006 -3.59006,5.85015 -11.21826,9.98681 -18.41614,9.98681 -2.52096,0 -2.70737,0.0538 -2.70737,0.78174 0,0.7596 0.10315,0.77617 3.63797,0.58508 2.51085,-0.13576 4.47668,-0.48286 6.34502,-1.12033 l 0,0 z"
       id="path3012"
       inkscape:connector-curvature="0"
       inkscape:export-filename="E:\workspace\shh\ShitHead\res\drawable-xhdpi\back_card.png"
       inkscape:export-xdpi="44.41"
       inkscape:export-ydpi="44.41" />
    <rect
       style="fill:none;stroke:#000000;stroke-width:2"
       id="rect2995"
       width="150"
       height="250"
       x="162.22516"
       y="-427.19324"
       transform="scale(1,-1)"
       inkscape:export-filename="E:\workspace\shh\ShitHead\res\drawable-xhdpi\back_card.png"
       inkscape:export-xdpi="44.41"
       inkscape:export-ydpi="44.41" />
    <path
       style="fill:#ff0000;stroke:#ff0000;stroke-width:0.50507629"
       d=""
       id="path3021"
       inkscape:connector-curvature="0" />
    <path
       sodipodi:type="spiral"
       style="fill:none;stroke:#a10000;stroke-width:1px;stroke-linecap:butt;stroke-linejoin:miter;stroke-opacity:1"
       id="path3849"
       sodipodi:cx="221.42857"
       sodipodi:cy="292.36218"
       sodipodi:expansion="1"
       sodipodi:revolution="3"
       sodipodi:radius="22.429026"
       sodipodi:argument="-17.118847"
       sodipodi:t0="0"
       d="m 221.42857,292.36218 c -0.17906,1.11021 -1.58488,0.30636 -1.84523,-0.29762 -0.70555,-1.63674 0.93742,-3.16837 2.44047,-3.39285 2.6886,-0.40155 4.81632,2.06137 4.94048,4.58333 0.18221,3.70107 -3.19419,6.49545 -6.72619,6.4881 -4.7076,-0.01 -8.18681,-4.32932 -8.03572,-8.86905 0.19014,-5.71279 5.46534,-9.88428 11.0119,-9.58334 6.71763,0.36449 11.58526,6.60183 11.13096,13.15476 -0.53537,7.7224 -7.7386,13.28842 -15.29761,12.67858 -8.72719,-0.70408 -14.99304,-8.87556 -14.2262,-17.44047 0.87133,-9.732 10.01265,-16.69869 19.58333,-15.77382 10.73685,1.03756 18.40507,11.14985 17.32143,21.72618 -1.20304,11.74174 -12.28712,20.11203 -23.86904,18.86906"
       transform="translate(12.214286,-79.285714)"
       inkscape:export-filename="E:\workspace\shh\ShitHead\res\drawable-xhdpi\back_card.png"
       inkscape:export-xdpi="44.41"
       inkscape:export-ydpi="44.41" />
    <path
       transform="translate(52.206915,-78.579485)"
       sodipodi:type="spiral"
       style="fill:none;stroke:#a10000;stroke-width:1px;stroke-linecap:butt;stroke-linejoin:miter;stroke-opacity:1"
       id="path3849-1"
       sodipodi:cx="221.42857"
       sodipodi:cy="292.36218"
       sodipodi:expansion="1"
       sodipodi:revolution="3"
       sodipodi:radius="22.429026"
       sodipodi:argument="-17.118847"
       sodipodi:t0="0"
       d="m 221.42857,292.36218 c -0.17906,1.11021 -1.58488,0.30636 -1.84523,-0.29762 -0.70555,-1.63674 0.93742,-3.16837 2.44047,-3.39285 2.6886,-0.40155 4.81632,2.06137 4.94048,4.58333 0.18221,3.70107 -3.19419,6.49545 -6.72619,6.4881 -4.7076,-0.01 -8.18681,-4.32932 -8.03572,-8.86905 0.19014,-5.71279 5.46534,-9.88428 11.0119,-9.58334 6.71763,0.36449 11.58526,6.60183 11.13096,13.15476 -0.53537,7.7224 -7.7386,13.28842 -15.29761,12.67858 -8.72719,-0.70408 -14.99304,-8.87556 -14.2262,-17.44047 0.87133,-9.732 10.01265,-16.69869 19.58333,-15.77382 10.73685,1.03756 18.40507,11.14985 17.32143,21.72618 -1.20304,11.74174 -12.28712,20.11203 -23.86904,18.86906"
       inkscape:export-filename="E:\workspace\shh\ShitHead\res\drawable-xhdpi\back_card.png"
       inkscape:export-xdpi="44.41"
       inkscape:export-ydpi="44.41" />
    <path
       transform="translate(-27.685942,-79.472343)"
       sodipodi:type="spiral"
       style="fill:none;stroke:#a10000;stroke-width:1px;stroke-linecap:butt;stroke-linejoin:miter;stroke-opacity:1"
       id="path3849-7"
       sodipodi:cx="221.42857"
       sodipodi:cy="292.36218"
       sodipodi:expansion="1"
       sodipodi:revolution="3"
       sodipodi:radius="22.429026"
       sodipodi:argument="-17.118847"
       sodipodi:t0="0"
       d="m 221.42857,292.36218 c -0.17906,1.11021 -1.58488,0.30636 -1.84523,-0.29762 -0.70555,-1.63674 0.93742,-3.16837 2.44047,-3.39285 2.6886,-0.40155 4.81632,2.06137 4.94048,4.58333 0.18221,3.70107 -3.19419,6.49545 -6.72619,6.4881 -4.7076,-0.01 -8.18681,-4.32932 -8.03572,-8.86905 0.19014,-5.71279 5.46534,-9.88428 11.0119,-9.58334 6.71763,0.36449 11.58526,6.60183 11.13096,13.15476 -0.53537,7.7224 -7.7386,13.28842 -15.29761,12.67858 -8.72719,-0.70408 -14.99304,-8.87556 -14.2262,-17.44047 0.87133,-9.732 10.01265,-16.69869 19.58333,-15.77382 10.73685,1.03756 18.40507,11.14985 17.32143,21.72618 -1.20304,11.74174 -12.28712,20.11203 -23.86904,18.86906"
       inkscape:export-filename="E:\workspace\shh\ShitHead\res\drawable-xhdpi\back_card.png"
       inkscape:export-xdpi="44.41"
       inkscape:export-ydpi="44.41" />
    <path
       sodipodi:type="spiral"
       style="fill:none;stroke:#a10000;stroke-width:1px;stroke-linecap:butt;stroke-linejoin:miter;stroke-opacity:1"
       id="path3849-4"
       sodipodi:cx="221.42857"
       sodipodi:cy="292.36218"
       sodipodi:expansion="1"
       sodipodi:revolution="3"
       sodipodi:radius="22.429026"
       sodipodi:argument="-17.118847"
       sodipodi:t0="0"
       d="m 221.42857,292.36218 c -0.17906,1.11021 -1.58488,0.30636 -1.84523,-0.29762 -0.70555,-1.63674 0.93742,-3.16837 2.44047,-3.39285 2.6886,-0.40155 4.81632,2.06137 4.94048,4.58333 0.18221,3.70107 -3.19419,6.49545 -6.72619,6.4881 -4.7076,-0.01 -8.18681,-4.32932 -8.03572,-8.86905 0.19014,-5.71279 5.46534,-9.88428 11.0119,-9.58334 6.71763,0.36449 11.58526,6.60183 11.13096,13.15476 -0.53537,7.7224 -7.7386,13.28842 -15.29761,12.67858 -8.72719,-0.70408 -14.99304,-8.87556 -14.2262,-17.44047 0.87133,-9.732 10.01265,-16.69869 19.58333,-15.77382 10.73685,1.03756 18.40507,11.14985 17.32143,21.72618 -1.20304,11.74174 -12.28712,20.11203 -23.86904,18.86906"
       transform="translate(12.553572,-35.196433)"
       inkscape:export-filename="E:\workspace\shh\ShitHead\res\drawable-xhdpi\back_card.png"
       inkscape:export-xdpi="44.41"
       inkscape:export-ydpi="44.41" />
    <path
       transform="translate(52.546202,-34.490203)"
       sodipodi:type="spiral"
       style="fill:none;stroke:#a10000;stroke-width:1px;stroke-linecap:butt;stroke-linejoin:miter;stroke-opacity:1"
       id="path3849-1-0"
       sodipodi:cx="221.42857"
       sodipodi:cy="292.36218"
       sodipodi:expansion="1"
       sodipodi:revolution="3"
       sodipodi:radius="22.429026"
       sodipodi:argument="-17.118847"
       sodipodi:t0="0"
       d="m 221.42857,292.36218 c -0.17906,1.11021 -1.58488,0.30636 -1.84523,-0.29762 -0.70555,-1.63674 0.93742,-3.16837 2.44047,-3.39285 2.6886,-0.40155 4.81632,2.06137 4.94048,4.58333 0.18221,3.70107 -3.19419,6.49545 -6.72619,6.4881 -4.7076,-0.01 -8.18681,-4.32932 -8.03572,-8.86905 0.19014,-5.71279 5.46534,-9.88428 11.0119,-9.58334 6.71763,0.36449 11.58526,6.60183 11.13096,13.15476 -0.53537,7.7224 -7.7386,13.28842 -15.29761,12.67858 -8.72719,-0.70408 -14.99304,-8.87556 -14.2262,-17.44047 0.87133,-9.732 10.01265,-16.69869 19.58333,-15.77382 10.73685,1.03756 18.40507,11.14985 17.32143,21.72618 -1.20304,11.74174 -12.28712,20.11203 -23.86904,18.86906"
       inkscape:export-filename="E:\workspace\shh\ShitHead\res\drawable-xhdpi\back_card.png"
       inkscape:export-xdpi="44.41"
       inkscape:export-ydpi="44.41" />
    <path
       transform="translate(-27.346658,-35.383053)"
       sodipodi:type="spiral"
       style="fill:none;stroke:#a10000;stroke-width:1px;stroke-linecap:butt;stroke-linejoin:miter;stroke-opacity:1"
       id="path3849-7-9"
       sodipodi:cx="221.42857"
       sodipodi:cy="292.36218"
       sodipodi:expansion="1"
       sodipodi:revolution="3"
       sodipodi:radius="22.429026"
       sodipodi:argument="-17.118847"
       sodipodi:t0="0"
       d="m 221.42857,292.36218 c -0.17906,1.11021 -1.58488,0.30636 -1.84523,-0.29762 -0.70555,-1.63674 0.93742,-3.16837 2.44047,-3.39285 2.6886,-0.40155 4.81632,2.06137 4.94048,4.58333 0.18221,3.70107 -3.19419,6.49545 -6.72619,6.4881 -4.7076,-0.01 -8.18681,-4.32932 -8.03572,-8.86905 0.19014,-5.71279 5.46534,-9.88428 11.0119,-9.58334 6.71763,0.36449 11.58526,6.60183 11.13096,13.15476 -0.53537,7.7224 -7.7386,13.28842 -15.29761,12.67858 -8.72719,-0.70408 -14.99304,-8.87556 -14.2262,-17.44047 0.87133,-9.732 10.01265,-16.69869 19.58333,-15.77382 10.73685,1.03756 18.40507,11.14985 17.32143,21.72618 -1.20304,11.74174 -12.28712,20.11203 -23.86904,18.86906"
       inkscape:export-filename="E:\workspace\shh\ShitHead\res\drawable-xhdpi\back_card.png"
       inkscape:export-xdpi="44.41"
       inkscape:export-ydpi="44.41" />
    <path
       sodipodi:type="spiral"
       style="fill:none;stroke:#a10000;stroke-width:1px;stroke-linecap:butt;stroke-linejoin:miter;stroke-opacity:1"
       id="path3849-48"
       sodipodi:cx="221.42857"
       sodipodi:cy="292.36218"
       sodipodi:expansion="1"
       sodipodi:revolution="3"
       sodipodi:radius="22.429026"
       sodipodi:argument="-17.118847"
       sodipodi:t0="0"
       d="m 221.42857,292.36218 c -0.17906,1.11021 -1.58488,0.30636 -1.84523,-0.29762 -0.70555,-1.63674 0.93742,-3.16837 2.44047,-3.39285 2.6886,-0.40155 4.81632,2.06137 4.94048,4.58333 0.18221,3.70107 -3.19419,6.49545 -6.72619,6.4881 -4.7076,-0.01 -8.18681,-4.32932 -8.03572,-8.86905 0.19014,-5.71279 5.46534,-9.88428 11.0119,-9.58334 6.71763,0.36449 11.58526,6.60183 11.13096,13.15476 -0.53537,7.7224 -7.7386,13.28842 -15.29761,12.67858 -8.72719,-0.70408 -14.99304,-8.87556 -14.2262,-17.44047 0.87133,-9.732 10.01265,-16.69869 19.58333,-15.77382 10.73685,1.03756 18.40507,11.14985 17.32143,21.72618 -1.20304,11.74174 -12.28712,20.11203 -23.86904,18.86906"
       transform="translate(11.698553,9.28701)"
       inkscape:export-filename="E:\workspace\shh\ShitHead\res\drawable-xhdpi\back_card.png"
       inkscape:export-xdpi="44.41"
       inkscape:export-ydpi="44.41" />
    <path
       transform="translate(51.691183,9.99324)"
       sodipodi:type="spiral"
       style="fill:none;stroke:#a10000;stroke-width:1px;stroke-linecap:butt;stroke-linejoin:miter;stroke-opacity:1"
       id="path3849-1-8"
       sodipodi:cx="221.42857"
       sodipodi:cy="292.36218"
       sodipodi:expansion="1"
       sodipodi:revolution="3"
       sodipodi:radius="22.429026"
       sodipodi:argument="-17.118847"
       sodipodi:t0="0"
       d="m 221.42857,292.36218 c -0.17906,1.11021 -1.58488,0.30636 -1.84523,-0.29762 -0.70555,-1.63674 0.93742,-3.16837 2.44047,-3.39285 2.6886,-0.40155 4.81632,2.06137 4.94048,4.58333 0.18221,3.70107 -3.19419,6.49545 -6.72619,6.4881 -4.7076,-0.01 -8.18681,-4.32932 -8.03572,-8.86905 0.19014,-5.71279 5.46534,-9.88428 11.0119,-9.58334 6.71763,0.36449 11.58526,6.60183 11.13096,13.15476 -0.53537,7.7224 -7.7386,13.28842 -15.29761,12.67858 -8.72719,-0.70408 -14.99304,-8.87556 -14.2262,-17.44047 0.87133,-9.732 10.01265,-16.69869 19.58333,-15.77382 10.73685,1.03756 18.40507,11.14985 17.32143,21.72618 -1.20304,11.74174 -12.28712,20.11203 -23.86904,18.86906"
       inkscape:export-filename="E:\workspace\shh\ShitHead\res\drawable-xhdpi\back_card.png"
       inkscape:export-xdpi="44.41"
       inkscape:export-ydpi="44.41" />
    <path
       transform="translate(-28.201678,9.10039)"
       sodipodi:type="spiral"
       style="fill:none;stroke:#a10000;stroke-width:1px;stroke-linecap:butt;stroke-linejoin:miter;stroke-opacity:1"
       id="path3849-7-2"
       sodipodi:cx="221.42857"
       sodipodi:cy="292.36218"
       sodipodi:expansion="1"
       sodipodi:revolution="3"
       sodipodi:radius="22.429026"
       sodipodi:argument="-17.118847"
       sodipodi:t0="0"
       d="m 221.42857,292.36218 c -0.17906,1.11021 -1.58488,0.30636 -1.84523,-0.29762 -0.70555,-1.63674 0.93742,-3.16837 2.44047,-3.39285 2.6886,-0.40155 4.81632,2.06137 4.94048,4.58333 0.18221,3.70107 -3.19419,6.49545 -6.72619,6.4881 -4.7076,-0.01 -8.18681,-4.32932 -8.03572,-8.86905 0.19014,-5.71279 5.46534,-9.88428 11.0119,-9.58334 6.71763,0.36449 11.58526,6.60183 11.13096,13.15476 -0.53537,7.7224 -7.7386,13.28842 -15.29761,12.67858 -8.72719,-0.70408 -14.99304,-8.87556 -14.2262,-17.44047 0.87133,-9.732 10.01265,-16.69869 19.58333,-15.77382 10.73685,1.03756 18.40507,11.14985 17.32143,21.72618 -1.20304,11.74174 -12.28712,20.11203 -23.86904,18.86906"
       inkscape:export-filename="E:\workspace\shh\ShitHead\res\drawable-xhdpi\back_card.png"
       inkscape:export-xdpi="44.41"
       inkscape:export-ydpi="44.41" />
    <path
       sodipodi:type="spiral"
       style="fill:none;stroke:#a10000;stroke-width:1px;stroke-linecap:butt;stroke-linejoin:miter;stroke-opacity:1"
       id="path3849-4-4"
       sodipodi:cx="221.42857"
       sodipodi:cy="292.36218"
       sodipodi:expansion="1"
       sodipodi:revolution="3"
       sodipodi:radius="22.429026"
       sodipodi:argument="-17.118847"
       sodipodi:t0="0"
       d="m 221.42857,292.36218 c -0.17906,1.11021 -1.58488,0.30636 -1.84523,-0.29762 -0.70555,-1.63674 0.93742,-3.16837 2.44047,-3.39285 2.6886,-0.40155 4.81632,2.06137 4.94048,4.58333 0.18221,3.70107 -3.19419,6.49545 -6.72619,6.4881 -4.7076,-0.01 -8.18681,-4.32932 -8.03572,-8.86905 0.19014,-5.71279 5.46534,-9.88428 11.0119,-9.58334 6.71763,0.36449 11.58526,6.60183 11.13096,13.15476 -0.53537,7.7224 -7.7386,13.28842 -15.29761,12.67858 -8.72719,-0.70408 -14.99304,-8.87556 -14.2262,-17.44047 0.87133,-9.732 10.01265,-16.69869 19.58333,-15.77382 10.73685,1.03756 18.40507,11.14985 17.32143,21.72618 -1.20304,11.74174 -12.28712,20.11203 -23.86904,18.86906"
       transform="translate(12.037843,53.3763)"
       inkscape:export-filename="E:\workspace\shh\ShitHead\res\drawable-xhdpi\back_card.png"
       inkscape:export-xdpi="44.41"
       inkscape:export-ydpi="44.41" />
    <path
       transform="translate(52.030473,54.08253)"
       sodipodi:type="spiral"
       style="fill:none;stroke:#a10000;stroke-width:1px;stroke-linecap:butt;stroke-linejoin:miter;stroke-opacity:1"
       id="path3849-1-0-5"
       sodipodi:cx="221.42857"
       sodipodi:cy="292.36218"
       sodipodi:expansion="1"
       sodipodi:revolution="3"
       sodipodi:radius="22.429026"
       sodipodi:argument="-17.118847"
       sodipodi:t0="0"
       d="m 221.42857,292.36218 c -0.17906,1.11021 -1.58488,0.30636 -1.84523,-0.29762 -0.70555,-1.63674 0.93742,-3.16837 2.44047,-3.39285 2.6886,-0.40155 4.81632,2.06137 4.94048,4.58333 0.18221,3.70107 -3.19419,6.49545 -6.72619,6.4881 -4.7076,-0.01 -8.18681,-4.32932 -8.03572,-8.86905 0.19014,-5.71279 5.46534,-9.88428 11.0119,-9.58334 6.71763,0.36449 11.58526,6.60183 11.13096,13.15476 -0.53537,7.7224 -7.7386,13.28842 -15.29761,12.67858 -8.72719,-0.70408 -14.99304,-8.87556 -14.2262,-17.44047 0.87133,-9.732 10.01265,-16.69869 19.58333,-15.77382 10.73685,1.03756 18.40507,11.14985 17.32143,21.72618 -1.20304,11.74174 -12.28712,20.11203 -23.86904,18.86906"
       inkscape:export-filename="E:\workspace\shh\ShitHead\res\drawable-xhdpi\back_card.png"
       inkscape:export-xdpi="44.41"
       inkscape:export-ydpi="44.41" />
    <path
       transform="translate(-27.862388,53.18968)"
       sodipodi:type="spiral"
       style="fill:none;stroke:#a10000;stroke-width:1px;stroke-linecap:butt;stroke-linejoin:miter;stroke-opacity:1"
       id="path3849-7-9-5"
       sodipodi:cx="221.42857"
       sodipodi:cy="292.36218"
       sodipodi:expansion="1"
       sodipodi:revolution="3"
       sodipodi:radius="22.429026"
       sodipodi:argument="-17.118847"
       sodipodi:t0="0"
       d="m 221.42857,292.36218 c -0.17906,1.11021 -1.58488,0.30636 -1.84523,-0.29762 -0.70555,-1.63674 0.93742,-3.16837 2.44047,-3.39285 2.6886,-0.40155 4.81632,2.06137 4.94048,4.58333 0.18221,3.70107 -3.19419,6.49545 -6.72619,6.4881 -4.7076,-0.01 -8.18681,-4.32932 -8.03572,-8.86905 0.19014,-5.71279 5.46534,-9.88428 11.0119,-9.58334 6.71763,0.36449 11.58526,6.60183 11.13096,13.15476 -0.53537,7.7224 -7.7386,13.28842 -15.29761,12.67858 -8.72719,-0.70408 -14.99304,-8.87556 -14.2262,-17.44047 0.87133,-9.732 10.01265,-16.69869 19.58333,-15.77382 10.73685,1.03756 18.40507,11.14985 17.32143,21.72618 -1.20304,11.74174 -12.28712,20.11203 -23.86904,18.86906"
       inkscape:export-filename="E:\workspace\shh\ShitHead\res\drawable-xhdpi\back_card.png"
       inkscape:export-xdpi="44.41"
       inkscape:export-ydpi="44.41" />
    <path
       sodipodi:type="spiral"
       style="fill:none;stroke:#a10000;stroke-width:1px;stroke-linecap:butt;stroke-linejoin:miter;stroke-opacity:1"
       id="path3849-4-4-1"
       sodipodi:cx="221.42857"
       sodipodi:cy="292.36218"
       sodipodi:expansion="1"
       sodipodi:revolution="3"
       sodipodi:radius="22.429026"
       sodipodi:argument="-17.118847"
       sodipodi:t0="0"
       d="m 221.42857,292.36218 c -0.17906,1.11021 -1.58488,0.30636 -1.84523,-0.29762 -0.70555,-1.63674 0.93742,-3.16837 2.44047,-3.39285 2.6886,-0.40155 4.81632,2.06137 4.94048,4.58333 0.18221,3.70107 -3.19419,6.49545 -6.72619,6.4881 -4.7076,-0.01 -8.18681,-4.32932 -8.03572,-8.86905 0.19014,-5.71279 5.46534,-9.88428 11.0119,-9.58334 6.71763,0.36449 11.58526,6.60183 11.13096,13.15476 -0.53537,7.7224 -7.7386,13.28842 -15.29761,12.67858 -8.72719,-0.70408 -14.99304,-8.87556 -14.2262,-17.44047 0.87133,-9.732 10.01265,-16.69869 19.58333,-15.77382 10.73685,1.03756 18.40507,11.14985 17.32143,21.72618 -1.20304,11.74174 -12.28712,20.11203 -23.86904,18.86906"
       transform="translate(12.193083,98.181918)"
       inkscape:export-filename="E:\workspace\shh\ShitHead\res\drawable-xhdpi\back_card.png"
       inkscape:export-xdpi="44.41"
       inkscape:export-ydpi="44.41" />
    <path
       transform="translate(52.185713,98.888148)"
       sodipodi:type="spiral"
       style="fill:none;stroke:#a10000;stroke-width:1px;stroke-linecap:butt;stroke-linejoin:miter;stroke-opacity:1"
       id="path3849-1-0-5-7"
       sodipodi:cx="221.42857"
       sodipodi:cy="292.36218"
       sodipodi:expansion="1"
       sodipodi:revolution="3"
       sodipodi:radius="22.429026"
       sodipodi:argument="-17.118847"
       sodipodi:t0="0"
       d="m 221.42857,292.36218 c -0.17906,1.11021 -1.58488,0.30636 -1.84523,-0.29762 -0.70555,-1.63674 0.93742,-3.16837 2.44047,-3.39285 2.6886,-0.40155 4.81632,2.06137 4.94048,4.58333 0.18221,3.70107 -3.19419,6.49545 -6.72619,6.4881 -4.7076,-0.01 -8.18681,-4.32932 -8.03572,-8.86905 0.19014,-5.71279 5.46534,-9.88428 11.0119,-9.58334 6.71763,0.36449 11.58526,6.60183 11.13096,13.15476 -0.53537,7.7224 -7.7386,13.28842 -15.29761,12.67858 -8.72719,-0.70408 -14.99304,-8.87556 -14.2262,-17.44047 0.87133,-9.732 10.01265,-16.69869 19.58333,-15.77382 10.73685,1.03756 18.40507,11.14985 17.32143,21.72618 -1.20304,11.74174 -12.28712,20.11203 -23.86904,18.86906"
       inkscape:export-filename="E:\workspace\shh\ShitHead\res\drawable-xhdpi\back_card.png"
       inkscape:export-xdpi="44.41"
       inkscape:export-ydpi="44.41" />
    <path
       transform="translate(-27.707147,97.995298)"
       sodipodi:type="spiral"
       style="fill:none;stroke:#a10000;stroke-width:1px;stroke-linecap:butt;stroke-linejoin:miter;stroke-opacity:1"
       id="path3849-7-9-5-1"
       sodipodi:cx="221.42857"
       sodipodi:cy="292.36218"
       sodipodi:expansion="1"
       sodipodi:revolution="3"
       sodipodi:radius="22.429026"
       sodipodi:argument="-17.118847"
       sodipodi:t0="0"
       d="m 221.42857,292.36218 c -0.17906,1.11021 -1.58488,0.30636 -1.84523,-0.29762 -0.70555,-1.63674 0.93742,-3.16837 2.44047,-3.39285 2.6886,-0.40155 4.81632,2.06137 4.94048,4.58333 0.18221,3.70107 -3.19419,6.49545 -6.72619,6.4881 -4.7076,-0.01 -8.18681,-4.32932 -8.03572,-8.86905 0.19014,-5.71279 5.46534,-9.88428 11.0119,-9.58334 6.71763,0.36449 11.58526,6.60183 11.13096,13.15476 -0.53537,7.7224 -7.7386,13.28842 -15.29761,12.67858 -8.72719,-0.70408 -14.99304,-8.87556 -14.2262,-17.44047 0.87133,-9.732 10.01265,-16.69869 19.58333,-15.77382 10.73685,1.03756 18.40507,11.14985 17.32143,21.72618 -1.20304,11.74174 -12.28712,20.11203 -23.86904,18.86906"
       inkscape:export-filename="E:\workspace\shh\ShitHead\res\drawable-xhdpi\back_card.png"
       inkscape:export-xdpi="44.41"
       inkscape:export-ydpi="44.41" />
    <rect
       style="fill:none;stroke:#000000;stroke-width:1.91988397"
       id="rect2995-1"
       width="142.4801"
       height="242.53088"
       x="165.1331"
       y="-423.34058"
       transform="scale(1,-1)"
       inkscape:export-filename="E:\workspace\shh\ShitHead\res\drawable-xhdpi\back_card.png"
       inkscape:export-xdpi="44.41"
       inkscape:export-ydpi="44.41" />
  </g>
</svg>
